<?xml version="1.0" standalone="no"?>
<!DOCTYPE svg PUBLIC "-//W3C//DTD SVG 20010904//EN"
 "http://www.w3.org/TR/2001/REC-SVG-20010904/DTD/svg10.dtd">
<svg version="1.0" xmlns="http://www.w3.org/2000/svg"
 width="700.000000pt" height="700.000000pt" viewBox="0 0 700.000000 700.000000"
 preserveAspectRatio="xMidYMid meet">
<metadata>
Created by potrace 1.14, written by Peter Selinger 2001-2017
</metadata>
<g transform="translate(0.000000,700.000000) scale(0.100000,-0.100000)"
fill="#000000" stroke="none">
<path d="M1930 5935 c-64 -20 -128 -78 -156 -142 l-24 -53 0 -2233 c0 -2518
-8 -2291 79 -2377 80 -79 88 -80 460 -77 314 2 328 3 367 24 22 12 57 41 77
64 69 79 67 39 67 1076 l0 933 700 0 700 0 0 -933 c0 -1063 -4 -1004 80 -1087
75 -76 99 -80 451 -80 277 0 302 1 353 21 70 26 130 91 151 164 13 44 15 330
13 2290 l-3 2240 -27 47 c-16 25 -45 60 -65 78 -68 55 -104 60 -440 60 l-304
0 -54 -26 c-30 -14 -70 -43 -89 -66 -69 -80 -66 -30 -66 -1070 l0 -938 -700 0
-700 0 -2 958 -3 957 -25 44 c-32 56 -91 106 -148 125 -63 22 -623 22 -692 1z"/>
<path d="M507 5225 c-27 -13 -63 -36 -79 -52 -28 -26 -66 -94 -73 -132 -2 -9
-4 -280 -4 -603 l-1 -588 -146 0 -146 0 -29 -29 -29 -29 0 -290 0 -290 26 -31
26 -31 149 0 149 0 1 -582 c0 -321 2 -592 4 -603 10 -54 40 -108 80 -143 81
-71 88 -72 454 -69 l326 2 45 27 c58 33 86 65 116 125 l23 48 1 1530 c0 1147
-3 1540 -12 1570 -6 22 -11 43 -10 47 1 4 -22 32 -51 61 -83 85 -96 88 -463
87 -303 -1 -310 -2 -357 -25z"/>
<path d="M5795 5241 c-70 -18 -131 -69 -172 -144 -17 -30 -18 -121 -21 -1578
-2 -1746 -9 -1603 77 -1689 80 -79 88 -80 461 -78 l325 3 46 27 c25 15 60 43
77 62 61 70 62 79 62 723 l0 583 144 0 c140 0 145 1 175 25 l30 26 1 295 1
295 -30 30 -29 29 -146 0 -146 0 0 590 c0 325 0 592 0 595 0 3 -10 26 -21 52
-25 60 -71 108 -129 136 -43 21 -59 22 -360 24 -173 1 -328 -2 -345 -6z"/>
</g>
</svg>
